<?xml version="1.0" encoding="UTF-8" standalone="no"?>
<svg
   xmlns:dc="http://purl.org/dc/elements/1.1/"
   xmlns:cc="http://creativecommons.org/ns#"
   xmlns:rdf="http://www.w3.org/1999/02/22-rdf-syntax-ns#"
   xmlns:svg="http://www.w3.org/2000/svg"
   xmlns="http://www.w3.org/2000/svg"
   xmlns:sodipodi="http://sodipodi.sourceforge.net/DTD/sodipodi-0.dtd"
   xmlns:inkscape="http://www.inkscape.org/namespaces/inkscape"
   id="svg"
   version="1.1"
   width="400"
   height="240"
   viewBox="0, 0, 400,240"
   sodipodi:docname="automatajs.svg"
   inkscape:version="1.0.2 (394de47547, 2021-03-26)">
  <metadata
     id="metadata1246">
    <rdf:RDF>
      <cc:Work
         rdf:about="">
        <dc:format>image/svg+xml</dc:format>
        <dc:type
           rdf:resource="http://purl.org/dc/dcmitype/StillImage" />
      </cc:Work>
    </rdf:RDF>
  </metadata>
  <defs
     id="defs1244" />
  <sodipodi:namedview
     pagecolor="#ffffff"
     bordercolor="#666666"
     borderopacity="1"
     objecttolerance="10"
     gridtolerance="10"
     guidetolerance="10"
     inkscape:pageopacity="0"
     inkscape:pageshadow="2"
     inkscape:window-width="1920"
     inkscape:window-height="1016"
     id="namedview1242"
     showgrid="false"
     inkscape:zoom="3.3106063"
     inkscape:cx="292.81853"
     inkscape:cy="130.56737"
     inkscape:window-x="0"
     inkscape:window-y="27"
     inkscape:window-maximized="1"
     inkscape:current-layer="svgg" />
  <g
     id="svgg">
    <path
       id="path0"
       d="M 113.95591,88.231279 114.766,98.439 h 12.305 11.224 V 86.58 c 0,-10.592 -0.04,-11.874 -0.379,-12.004 -0.209,-0.081 -5.26,-0.146 -11.225,-0.146 h -11.925 l -0.36407,11.335798 M 69.976142,127.60085 69.988,143.337 h 11.645 10.564 v -0.571 c 0,-0.408 0.205,-0.656 0.72,-0.869 l 0.72,-0.299 V 120.072 98.545 l -0.72,-0.272 c -0.483,-0.183 -0.72,-0.437 -0.72,-0.773 0,-0.501 -0.014,-0.501 -10.564,-0.501 H 69.988 l -0.293627,23.45077 M 106.903,108.202 c -0.211,0.085 -0.3,0.798 -0.3,2.382 v 2.261 h -2.022 c -1.111,0 -2.192,0.066 -2.4,0.146 -0.579,0.222 -0.579,20.375 0,20.597 0.907,0.348 5.566,0.157 5.716,-0.234 0.081,-0.209 0.146,-2.37 0.146,-4.802 v -4.422 h 4.082 4.081 v 4.656 c 0,5.442 -0.335,4.947 3.356,4.947 2.145,0 2.621,-0.065 2.741,-0.379 0.191,-0.496 0.191,-19.633 0,-20.129 -0.118,-0.309 -0.566,-0.38 -2.401,-0.38 h -2.255 v -2.021 c 0,-3.04 0.498,-2.784 -5.368,-2.762 -2.792,0.011 -5.211,0.074 -5.376,0.14 m 43.217,0 c -0.494,0.199 -0.419,5.987 0.08,6.178 0.209,0.08 2.315,0.146 4.682,0.146 h 4.302 v 9.355 c 0,10.939 -0.377,9.852 3.417,9.852 3.37,0 3.065,0.982 3.065,-9.891 v -9.316 h 4.514 c 5.444,0 5.09,0.225 5.09,-3.241 0,-1.753 -0.099,-2.764 -0.288,-2.954 -0.289,-0.289 -24.159,-0.413 -24.862,-0.129 m 52.569,0.129 c -0.415,0.416 -0.415,24.699 0,25.114 0.19,0.19 1.201,0.288 2.953,0.288 3.538,0 3.242,0.685 3.242,-7.491 v -6.914 h 1.56 1.561 v 2.113 c 0,2.717 -0.035,2.689 3.241,2.689 3.276,0 3.241,0.028 3.241,-2.689 v -2.113 h 1.561 1.561 v 6.914 c 0,5.059 0.077,6.993 0.288,7.203 0.396,0.397 5.51,0.397 5.906,0 0.415,-0.415 0.415,-24.698 0,-25.114 -0.396,-0.396 -5.51,-0.396 -5.906,0 -0.181,0.181 -0.288,1.078 -0.288,2.401 v 2.113 h -2.113 c -2.656,0 -2.689,0.034 -2.689,2.689 v 2.113 h -1.561 -1.561 v -2.113 c 0,-2.655 -0.033,-2.689 -2.689,-2.689 h -2.112 v -2.113 c 0,-1.323 -0.108,-2.22 -0.289,-2.401 -0.396,-0.396 -5.51,-0.396 -5.906,0 m 52.821,0 c -0.396,0.397 -0.396,5.51 0,5.907 0.204,0.203 1.612,0.288 4.802,0.288 h 4.514 v 9.316 c 0,10.873 -0.304,9.891 3.065,9.891 3.794,0 3.418,1.087 3.418,-9.852 v -9.355 h 4.337 c 5.586,0 5.266,0.197 5.266,-3.241 0,-2.468 -0.046,-2.77 -0.464,-2.993 -0.706,-0.378 -24.558,-0.34 -24.938,0.039 m 67.085,0.092 c -0.08,0.209 -0.146,4.531 -0.146,9.604 v 9.224 h -4.082 -4.081 v 0.571 c 0,0.408 -0.206,0.656 -0.721,0.869 -0.718,0.298 -0.72,0.304 -0.72,2.291 0,3.002 -0.481,2.751 5.288,2.751 6.264,0 5.757,0.225 5.757,-2.546 v -2.255 h 2.021 c 1.111,0 2.192,-0.066 2.401,-0.146 0.578,-0.222 0.578,-20.375 0,-20.597 -0.907,-0.348 -5.567,-0.157 -5.717,0.234 m 9.604,4.802 c -0.081,0.209 -0.146,1.496 -0.146,2.861 0,3.412 -0.133,3.242 2.523,3.242 h 2.232 l 0.243,-0.698 c 0.134,-0.384 0.468,-0.769 0.744,-0.856 0.438,-0.14 0.5,-0.349 0.5,-1.688 0,-1.338 -0.062,-1.548 -0.5,-1.687 -0.276,-0.087 -0.61,-0.473 -0.744,-0.856 l -0.243,-0.698 h -2.232 c -1.814,0 -2.259,0.071 -2.377,0.38 m -215.993,2.861 v 1.561 h -4.081 -4.082 v -1.561 -1.56 h 4.082 4.081 v 1.56 m 231.693,6.934 c 0,0.408 -0.205,0.656 -0.72,0.87 -0.692,0.286 -0.72,0.357 -0.72,1.8 0,1.443 0.10331,1.62407 0.79531,1.91107 0.515,0.213 0.64469,0.35093 0.64469,0.75893 0,0.557 0.053,0.572 2.021,0.572 2.952,0 2.781,0.199 2.781,-3.242 0,-3.44 0.171,-3.241 -2.781,-3.241 -1.968,0 -2.021,0.015 -2.021,0.571 m -233.28574,35.85374 0.15274,6.79226 h 12.305 11.224 v -11.859 c 0,-10.592 -0.04,-11.874 -0.379,-12.005 -0.209,-0.08 -5.26,-0.145 -11.225,-0.145 h -11.925 l -0.43451,12.10967"
       stroke="none"
       fill="#2c6494"
       fill-rule="evenodd"
       sodipodi:nodetypes="ccccscsccccccscccccsscccscscccscccssccscscccsscssscsscccssscccssscccscccsscsscccsscsscccscssscsscccscccscssscsccccsscccscccsccccccccccccscsssscccccscscc" />
    <path
       id="path1"
       d="m 92.197,85.698 c 0,11.162 -0.20308,12.254383 0.28592,12.409383 0.271,0.086 0.361815,0.02933 0.482815,0.348334 L 93.626,98.439 h 10.57 10.57 V 86.435 74.43 H 103.481 92.197 v 11.268 m -44.898,34.47 v 23.169 H 58.643 69.988 V 120.168 96.999 H 58.643 47.299 v 23.169 m 78.511,-1.688 v 10.452 h 2.401 2.401 v 2.405 2.406 l 5.462,-0.065 5.463,-0.065 0.068,-2.332 0.069,-2.332 2.332,-0.069 2.333,-0.068 v -10.325 -10.324 l -3.062,-0.067 -3.061,-0.067 v 9.611 9.611 h -4.079 -4.079 l -0.062,-9.544 -0.063,-9.544 -3.061,-0.067 -3.062,-0.067 v 10.451 m 57.548,-10.281 c -0.091,0.09 -0.165,1.169 -0.165,2.397 v 2.232 l -2.341,0.068 -2.341,0.069 v 7.923 7.924 l 2.333,0.068 2.332,0.069 0.069,2.332 0.068,2.332 h 5.523 5.522 l 0.068,-2.332 0.069,-2.332 2.332,-0.069 2.333,-0.068 v -7.924 -7.923 l -2.333,-0.068 -2.332,-0.069 -0.069,-2.332 -0.068,-2.333 -5.418,-0.064 c -2.98,-0.036 -5.492,0.009 -5.582,0.1 m 52.821,0 c -0.091,0.09 -0.165,1.169 -0.165,2.397 v 2.232 l -2.341,0.068 -2.34,0.069 v 10.324 10.324 h 3.121 3.121 l 0.065,-4.741 0.065,-4.742 h 3.952 3.951 l 0.065,4.742 0.065,4.741 h 3.122 3.121 v -10.324 -10.324 l -2.333,-0.068 -2.332,-0.069 -0.069,-2.332 -0.068,-2.333 -5.418,-0.064 c -2.98,-0.036 -5.492,0.009 -5.582,0.1 m 52.817,0.004 c -0.088,0.088 -0.16,1.165 -0.16,2.393 v 2.232 l -2.341,0.068 -2.341,0.069 v 10.324 10.324 h 3.121 3.121 l 0.065,-4.741 0.065,-4.742 h 3.952 3.951 l 0.065,4.742 0.065,4.741 3.062,0.068 3.061,0.067 v -10.452 -10.451 h -2.401 -2.401 v -2.401 -2.401 h -5.362 c -2.949,0 -5.434,0.072 -5.522,0.16 m 48.019,0 c -0.562,0.562 -0.77752,5.15556 -0.12752,5.46556 0.20998,0.1002 0.36666,0.29251 0.47117,0.40456 0.0811,0.087 0.13083,0.0842 0.14962,0.21702 l 0.40053,0.0202 0.4202,0.21564 h 7.186 7.186 v -3.241 -3.242 h -7.763 c -4.27,0 -7.835,0.072 -7.923,0.16 m -144.218,12.685 v 6.363 h -3.961 -3.962 v -6.363 -6.362 h 3.962 3.961 v 6.362 m 52.821,-4.802 v 1.561 h -3.961 -3.962 v -1.561 -1.56 h 3.962 3.961 v 1.56 m 52.821,0 v 1.561 h -3.961 -3.962 v -1.561 -1.56 h 3.962 3.961 v 1.56 m 39.29521,1.59996 c -0.031,0.21579 -0.29341,0.22625 -0.42463,0.32873 -0.0548,0.0428 -0.12075,0.23141 -0.23248,0.28506 l -0.2391,1.06225 0.068,2.324 0.069,2.324 4.724,0.065 c 4.578,0.063 5.22869,0.61942 5.37969,0.14242 0.086,-0.27 0.50031,-0.56907 0.82031,-0.77907 0.551,-0.361 0,-1.17135 0,-3.41835 v -2.373 h -4.785 c -4.774,0 -5.11038,-0.44059 -5.18738,0.0964 M 308.148,122.763 c -0.067,0.173 -0.09,1.604 -0.053,3.181 l 0.068,2.868 2.322,0.068 c 2.166,0.064 2.61484,0.3902 2.76184,-0.0718 0.0311,-0.0984 0.006,-0.0277 0.0984,-0.0286 0.0406,-3.8e-4 0.1038,-0.0738 0.20429,-0.0814 0.12028,-0.009 0.26734,-0.0708 0.42085,-0.17149 0.551,-0.361 0.3156,-1.45777 0.3156,-3.70477 v -2.373 h -3.009 c -2.257,0 -3.039,0.078 -3.129,0.314 m 24.009,4.802 c -0.066,0.173 -0.09,1.604 -0.052,3.181 l 0.068,2.867 7.863,0.064 7.863,0.063 v -2.377 c 0,-2.25 0.32945,-3.18618 -0.22155,-3.54818 -0.32,-0.209 -0.54662,-0.10034 -0.63162,-0.36834 -0.195,-0.614 -14.65483,-0.49048 -14.88883,0.11852 M 92.058609,142.65176 c -0.085,0.268 0.352313,0.59578 0.03231,0.80578 L 92.197,143.393 v 11.136 11.137 h 11.284 11.285 v -12.005 -12.004 h -10.548 c -10.384,0 -11.611907,-0.14489 -11.763907,0.33411"
       stroke="none"
       fill="#040404"
       fill-rule="evenodd"
       sodipodi:nodetypes="ccccccccccccccccccccccccccccccccccccccccccccccsccccccccccccccccccccccccsccccccccccccccccccccccccscccccccccccccccccccccscccscccccccscccccccccccccccccccccccccccccsccccsccscsccccccsscscsccccccsccccccccccccsc" />
  </g>
</svg>
