<svg id="svg" version="1.1" xmlns="http://www.w3.org/2000/svg" xmlns:xlink="http://www.w3.org/1999/xlink" width="400" height="240" viewBox="0, 0, 400,240"><g id="svgg"><path id="path0" d="M115.846 86.435 L 115.846 98.439 127.071 98.439 L 138.295 98.439 138.295 86.580 C 138.295 75.988,138.255 74.706,137.916 74.576 C 137.707 74.495,132.656 74.430,126.691 74.430 L 115.846 74.430 115.846 86.435 M71.068 120.168 L 71.068 143.337 81.633 143.337 L 92.197 143.337 92.197 142.766 C 92.197 142.358,92.402 142.110,92.917 141.897 L 93.637 141.598 93.637 120.072 L 93.637 98.545 92.917 98.273 C 92.434 98.090,92.197 97.836,92.197 97.500 C 92.197 96.999,92.183 96.999,81.633 96.999 L 71.068 96.999 71.068 120.168 M106.903 108.202 C 106.692 108.287,106.603 109.000,106.603 110.584 L 106.603 112.845 104.581 112.845 C 103.470 112.845,102.389 112.911,102.181 112.991 C 101.602 113.213,101.602 133.366,102.181 133.588 C 103.088 133.936,107.747 133.745,107.897 133.354 C 107.978 133.145,108.043 130.984,108.043 128.552 L 108.043 124.130 112.125 124.130 L 116.206 124.130 116.206 128.786 C 116.206 134.228,115.871 133.733,119.562 133.733 C 121.707 133.733,122.183 133.668,122.303 133.354 C 122.494 132.858,122.494 113.721,122.303 113.225 C 122.185 112.916,121.737 112.845,119.902 112.845 L 117.647 112.845 117.647 110.824 C 117.647 107.784,118.145 108.040,112.279 108.062 C 109.487 108.073,107.068 108.136,106.903 108.202 M150.120 108.202 C 149.626 108.401,149.701 114.189,150.200 114.380 C 150.409 114.460,152.515 114.526,154.882 114.526 L 159.184 114.526 159.184 123.881 C 159.184 134.820,158.807 133.733,162.601 133.733 C 165.971 133.733,165.666 134.715,165.666 123.842 L 165.666 114.526 170.180 114.526 C 175.624 114.526,175.270 114.751,175.270 111.285 C 175.270 109.532,175.171 108.521,174.982 108.331 C 174.693 108.042,150.823 107.918,150.120 108.202 M202.689 108.331 C 202.274 108.747,202.274 133.030,202.689 133.445 C 202.879 133.635,203.890 133.733,205.642 133.733 C 209.180 133.733,208.884 134.418,208.884 126.242 L 208.884 119.328 210.444 119.328 L 212.005 119.328 212.005 121.441 C 212.005 124.158,211.970 124.130,215.246 124.130 C 218.522 124.130,218.487 124.158,218.487 121.441 L 218.487 119.328 220.048 119.328 L 221.609 119.328 221.609 126.242 C 221.609 131.301,221.686 133.235,221.897 133.445 C 222.293 133.842,227.407 133.842,227.803 133.445 C 228.218 133.030,228.218 108.747,227.803 108.331 C 227.407 107.935,222.293 107.935,221.897 108.331 C 221.716 108.512,221.609 109.409,221.609 110.732 L 221.609 112.845 219.496 112.845 C 216.840 112.845,216.807 112.879,216.807 115.534 L 216.807 117.647 215.246 117.647 L 213.685 117.647 213.685 115.534 C 213.685 112.879,213.652 112.845,210.996 112.845 L 208.884 112.845 208.884 110.732 C 208.884 109.409,208.776 108.512,208.595 108.331 C 208.199 107.935,203.085 107.935,202.689 108.331 M255.510 108.331 C 255.114 108.728,255.114 113.841,255.510 114.238 C 255.714 114.441,257.122 114.526,260.312 114.526 L 264.826 114.526 264.826 123.842 C 264.826 134.715,264.522 133.733,267.891 133.733 C 271.685 133.733,271.309 134.820,271.309 123.881 L 271.309 114.526 275.646 114.526 C 281.232 114.526,280.912 114.723,280.912 111.285 C 280.912 108.817,280.866 108.515,280.448 108.292 C 279.742 107.914,255.890 107.952,255.510 108.331 M322.595 108.423 C 322.515 108.632,322.449 112.954,322.449 118.027 L 322.449 127.251 318.367 127.251 L 314.286 127.251 314.286 127.822 C 314.286 128.230,314.080 128.478,313.565 128.691 C 312.847 128.989,312.845 128.995,312.845 130.982 C 312.845 133.984,312.364 133.733,318.133 133.733 C 324.397 133.733,323.890 133.958,323.890 131.187 L 323.890 128.932 325.911 128.932 C 327.022 128.932,328.103 128.866,328.312 128.786 C 328.890 128.564,328.890 108.411,328.312 108.189 C 327.405 107.841,322.745 108.032,322.595 108.423 M332.199 113.225 C 332.118 113.434,332.053 114.721,332.053 116.086 C 332.053 119.498,331.920 119.328,334.576 119.328 L 336.808 119.328 337.051 118.630 C 337.185 118.246,337.519 117.861,337.795 117.774 C 338.233 117.634,338.295 117.425,338.295 116.086 C 338.295 114.748,338.233 114.538,337.795 114.399 C 337.519 114.312,337.185 113.926,337.051 113.543 L 336.808 112.845 334.576 112.845 C 332.762 112.845,332.317 112.916,332.199 113.225 M116.206 116.086 L 116.206 117.647 112.125 117.647 L 108.043 117.647 108.043 116.086 L 108.043 114.526 112.125 114.526 L 116.206 114.526 116.206 116.086 M347.899 123.020 C 347.899 123.428,347.694 123.676,347.179 123.890 C 346.487 124.176,346.459 124.247,346.459 125.690 C 346.459 127.133,346.487 127.204,347.179 127.491 C 347.694 127.704,347.899 127.952,347.899 128.360 C 347.899 128.917,347.952 128.932,349.920 128.932 C 352.872 128.932,352.701 129.131,352.701 125.690 C 352.701 122.250,352.872 122.449,349.920 122.449 C 347.952 122.449,347.899 122.464,347.899 123.020 M115.846 153.661 L 115.846 165.666 127.071 165.666 L 138.295 165.666 138.295 153.807 C 138.295 143.215,138.255 141.933,137.916 141.802 C 137.707 141.722,132.656 141.657,126.691 141.657 L 115.846 141.657 115.846 153.661 " stroke="none" fill="#2c6494" fill-rule="evenodd"></path><path id="path1" d="M92.197 85.698 C 92.197 96.860,92.202 96.968,92.691 97.123 C 92.962 97.209,93.284 97.541,93.405 97.860 L 93.626 98.439 104.196 98.439 L 114.766 98.439 114.766 86.435 L 114.766 74.430 103.481 74.430 L 92.197 74.430 92.197 85.698 M47.299 120.168 L 47.299 143.337 58.643 143.337 L 69.988 143.337 69.988 120.168 L 69.988 96.999 58.643 96.999 L 47.299 96.999 47.299 120.168 M125.810 118.480 L 125.810 128.932 128.211 128.932 L 130.612 128.932 130.612 131.337 L 130.612 133.743 136.074 133.678 L 141.537 133.613 141.605 131.281 L 141.674 128.949 144.006 128.880 L 146.339 128.812 146.339 118.487 L 146.339 108.163 143.277 108.096 L 140.216 108.029 140.216 117.640 L 140.216 127.251 136.137 127.251 L 132.058 127.251 131.996 117.707 L 131.933 108.163 128.872 108.096 L 125.810 108.029 125.810 118.480 M183.358 108.199 C 183.267 108.289,183.193 109.368,183.193 110.596 L 183.193 112.828 180.852 112.896 L 178.511 112.965 178.511 120.888 L 178.511 128.812 180.844 128.880 L 183.176 128.949 183.245 131.281 L 183.313 133.613 188.836 133.613 L 194.358 133.613 194.426 131.281 L 194.495 128.949 196.827 128.880 L 199.160 128.812 199.160 120.888 L 199.160 112.965 196.827 112.897 L 194.495 112.828 194.426 110.496 L 194.358 108.163 188.940 108.099 C 185.960 108.063,183.448 108.108,183.358 108.199 M236.179 108.199 C 236.088 108.289,236.014 109.368,236.014 110.596 L 236.014 112.828 233.673 112.896 L 231.333 112.965 231.333 123.289 L 231.333 133.613 234.454 133.613 L 237.575 133.613 237.640 128.872 L 237.705 124.130 241.657 124.130 L 245.608 124.130 245.673 128.872 L 245.738 133.613 248.860 133.613 L 251.981 133.613 251.981 123.289 L 251.981 112.965 249.648 112.897 L 247.316 112.828 247.247 110.496 L 247.179 108.163 241.761 108.099 C 238.781 108.063,236.269 108.108,236.179 108.199 M288.996 108.203 C 288.908 108.291,288.836 109.368,288.836 110.596 L 288.836 112.828 286.495 112.896 L 284.154 112.965 284.154 123.289 L 284.154 133.613 287.275 133.613 L 290.396 133.613 290.461 128.872 L 290.526 124.130 294.478 124.130 L 298.429 124.130 298.494 128.872 L 298.559 133.613 301.621 133.681 L 304.682 133.748 304.682 123.296 L 304.682 112.845 302.281 112.845 L 299.880 112.845 299.880 110.444 L 299.880 108.043 294.518 108.043 C 291.569 108.043,289.084 108.115,288.996 108.203 M337.015 108.203 C 336.453 108.765,336.865 112.824,337.515 113.134 C 337.888 113.312,338.209 113.684,338.252 113.988 L 338.329 114.526 345.515 114.526 L 352.701 114.526 352.701 111.285 L 352.701 108.043 344.938 108.043 C 340.668 108.043,337.103 108.115,337.015 108.203 M192.797 120.888 L 192.797 127.251 188.836 127.251 L 184.874 127.251 184.874 120.888 L 184.874 114.526 188.836 114.526 L 192.797 114.526 192.797 120.888 M245.618 116.086 L 245.618 117.647 241.657 117.647 L 237.695 117.647 237.695 116.086 L 237.695 114.526 241.657 114.526 L 245.618 114.526 245.618 116.086 M298.439 116.086 L 298.439 117.647 294.478 117.647 L 290.516 117.647 290.516 116.086 L 290.516 114.526 294.478 114.526 L 298.439 114.526 298.439 116.086 M338.252 118.185 C 338.208 118.491,337.886 118.861,337.507 119.043 L 336.838 119.362 336.906 121.686 L 336.975 124.010 341.699 124.075 C 346.277 124.138,346.428 124.125,346.579 123.648 C 346.665 123.378,346.997 122.985,347.317 122.775 C 347.868 122.414,347.899 122.267,347.899 120.020 L 347.899 117.647 343.114 117.647 C 338.340 117.647,338.329 117.648,338.252 118.185 M308.148 122.763 C 308.081 122.936,308.058 124.367,308.095 125.944 L 308.163 128.812 310.485 128.880 C 312.651 128.944,312.818 128.915,312.965 128.453 C 313.051 128.181,313.384 127.787,313.704 127.577 C 314.255 127.216,314.286 127.069,314.286 124.822 L 314.286 122.449 311.277 122.449 C 309.020 122.449,308.238 122.527,308.148 122.763 M332.157 127.565 C 332.091 127.738,332.067 129.169,332.105 130.746 L 332.173 133.613 340.036 133.677 L 347.899 133.740 347.899 131.363 C 347.899 129.113,347.868 128.967,347.317 128.605 C 346.997 128.396,346.666 128.005,346.581 127.737 C 346.386 127.123,332.391 126.956,332.157 127.565 M93.515 142.143 C 93.430 142.411,93.099 142.801,92.779 143.011 L 92.197 143.393 92.197 154.529 L 92.197 165.666 103.481 165.666 L 114.766 165.666 114.766 153.661 L 114.766 141.657 104.218 141.657 C 93.834 141.657,93.667 141.664,93.515 142.143 " stroke="none" fill="#040404" fill-rule="evenodd"></path><path id="path2" d="M115.486 86.435 C 115.486 94.396,115.567 98.417,115.726 98.319 C 115.881 98.224,115.966 94.000,115.966 86.435 C 115.966 78.869,115.881 74.645,115.726 74.550 C 115.567 74.452,115.486 78.474,115.486 86.435 M70.588 120.168 C 70.588 135.454,70.670 143.337,70.828 143.337 C 70.987 143.337,71.068 135.454,71.068 120.168 C 71.068 104.882,70.987 96.999,70.828 96.999 C 70.670 96.999,70.588 104.882,70.588 120.168 M92.197 97.549 C 92.197 97.765,92.422 98.063,92.698 98.210 C 93.434 98.604,93.482 98.362,92.796 97.718 C 92.310 97.261,92.197 97.229,92.197 97.549 M337.019 113.542 C 337.094 113.827,337.367 114.174,337.626 114.313 C 338.370 114.711,338.353 114.431,337.587 113.697 C 336.946 113.083,336.896 113.069,337.019 113.542 M337.534 117.947 C 337.330 118.112,337.086 118.463,336.993 118.727 C 336.859 119.107,336.977 119.060,337.560 118.502 C 337.964 118.114,338.295 117.764,338.295 117.722 C 338.295 117.546,337.879 117.669,337.534 117.947 M347.161 123.551 L 346.579 124.172 347.239 123.872 C 347.602 123.707,347.899 123.428,347.899 123.251 C 347.899 122.809,347.828 122.838,347.161 123.551 M347.161 127.830 C 347.828 128.543,347.899 128.571,347.899 128.130 C 347.899 127.953,347.602 127.673,347.239 127.508 L 346.579 127.209 347.161 127.830 M313.547 128.353 L 312.965 128.974 313.625 128.674 C 313.989 128.509,314.286 128.230,314.286 128.053 C 314.286 127.611,314.215 127.640,313.547 128.353 M92.737 141.950 C 92.440 142.093,92.197 142.375,92.197 142.576 C 92.197 142.850,92.347 142.800,92.797 142.377 C 93.629 141.596,93.619 141.525,92.737 141.950 M115.486 153.661 C 115.486 161.622,115.567 165.644,115.726 165.546 C 115.881 165.451,115.966 161.227,115.966 153.661 C 115.966 146.096,115.881 141.872,115.726 141.777 C 115.567 141.679,115.486 145.701,115.486 153.661 " stroke="none" fill="#186874" fill-rule="evenodd"></path><path id="path3" d="M115.166 74.590 C 114.896 74.860,114.975 98.439,115.246 98.439 C 115.403 98.439,115.486 94.278,115.486 86.435 C 115.486 79.832,115.450 74.430,115.406 74.430 C 115.362 74.430,115.254 74.502,115.166 74.590 M70.112 119.868 C 70.114 134.218,70.202 142.871,70.348 143.097 C 70.499 143.331,70.582 135.314,70.585 120.228 C 70.587 104.900,70.507 96.999,70.348 96.999 C 70.190 96.999,70.109 104.779,70.112 119.868 M92.676 97.598 C 92.986 97.928,93.292 98.144,93.357 98.080 C 93.474 97.963,92.477 96.999,92.238 96.999 C 92.169 96.999,92.367 97.268,92.676 97.598 M336.855 112.918 C 336.855 112.961,337.192 113.313,337.605 113.701 C 338.130 114.194,338.264 114.254,338.050 113.901 C 337.786 113.465,336.855 112.699,336.855 112.918 M337.440 118.637 C 336.946 119.163,336.886 119.296,337.239 119.082 C 337.675 118.818,338.441 117.887,338.222 117.887 C 338.180 117.887,337.828 118.225,337.440 118.637 M347.133 123.109 C 346.401 123.961,346.407 124.229,347.142 123.545 C 347.558 123.157,347.899 122.806,347.899 122.764 C 347.899 122.540,347.446 122.745,347.133 123.109 M346.654 127.631 C 346.954 128.210,347.620 128.811,347.782 128.648 C 347.844 128.587,347.557 128.220,347.145 127.834 C 346.578 127.301,346.459 127.252,346.654 127.631 M313.519 127.911 C 312.788 128.763,312.794 129.031,313.528 128.346 C 313.945 127.959,314.286 127.607,314.286 127.566 C 314.286 127.342,313.832 127.546,313.519 127.911 M92.797 142.377 C 92.418 142.773,92.219 143.097,92.355 143.097 C 92.601 143.097,93.170 142.529,93.495 141.957 C 93.775 141.465,93.530 141.612,92.797 142.377 M115.166 141.817 C 114.896 142.086,114.975 165.666,115.246 165.666 C 115.403 165.666,115.486 161.505,115.486 153.661 C 115.486 147.059,115.450 141.657,115.406 141.657 C 115.362 141.657,115.254 141.729,115.166 141.817 " stroke="none" fill="#183828" fill-rule="evenodd"></path><path id="path4" d="M114.820 86.495 C 114.850 93.130,114.904 96.669,114.939 94.358 C 115.107 83.602,115.110 74.430,114.946 74.430 C 114.847 74.430,114.790 79.859,114.820 86.495 M69.924 120.094 C 69.893 132.730,69.949 143.119,70.048 143.180 C 70.210 143.280,70.207 120.326,70.043 103.601 C 70.009 100.036,69.955 107.458,69.924 120.094 M337.745 113.558 C 337.967 113.818,338.198 113.983,338.257 113.924 C 338.400 113.781,337.812 113.085,337.548 113.085 C 337.433 113.085,337.522 113.298,337.745 113.558 M337.745 118.615 C 337.522 118.875,337.433 119.088,337.548 119.088 C 337.812 119.088,338.400 118.392,338.257 118.249 C 338.198 118.190,337.967 118.354,337.745 118.615 M114.820 153.721 C 114.850 160.357,114.904 163.896,114.939 161.585 C 115.107 150.829,115.110 141.656,114.946 141.657 C 114.847 141.657,114.790 147.086,114.820 153.721 " stroke="none" fill="#18042c" fill-rule="evenodd"></path></g></svg>